<svg width="21" height="22" viewBox="0 0 21 22" fill="none" xmlns="http://www.w3.org/2000/svg">
<path d="M20.1244 7.50391C20.0153 7.56519 17.4172 8.85841 17.4172 11.7258C17.5397 14.9959 20.6959 16.1427 20.75 16.1427C20.6959 16.2039 20.2735 17.7049 19.0224 19.2783C18.0295 20.6336 16.9275 22 15.254 22C13.6621 22 13.0907 21.0967 11.254 21.0967C9.28147 21.0967 8.72335 22 7.21314 22C5.53967 22 4.35599 20.5603 3.30896 19.2178C1.94871 17.4606 0.79254 14.703 0.751723 12.0553C0.724217 10.6522 1.02413 9.27304 1.78544 8.10158C2.85998 6.46614 4.77835 5.35595 6.8733 5.31935C8.47845 5.2708 9.90703 6.30777 10.8866 6.30777C11.8254 6.30777 13.5805 5.31935 15.5663 5.31935C16.4235 5.32014 18.7092 5.55173 20.1244 7.50391ZM10.7509 5.03921C10.4651 3.75792 11.254 2.47663 11.9887 1.65931C12.9274 0.670887 14.4101 0 15.6888 0C15.7704 1.28129 15.2531 2.53791 14.3285 3.45312C13.4989 4.44154 12.0703 5.18565 10.7509 5.03921Z" fill="#1A202C"/>
</svg>
