<svg width="28" height="28" viewBox="0 0 28 28" fill="none" xmlns="http://www.w3.org/2000/svg">
<path d="M11.6667 5.83333C11.6667 5.21449 11.9126 4.621 12.3502 4.18342C12.7877 3.74583 13.3812 3.5 14.0001 3.5C14.6189 3.5 15.2124 3.74583 15.65 4.18342C16.0876 4.621 16.3334 5.21449 16.3334 5.83333C17.6732 6.46687 18.8154 7.45305 19.6375 8.68618C20.4596 9.91932 20.9306 11.3529 21.0001 12.8333V16.3333C21.0879 17.0587 21.3448 17.7532 21.75 18.3611C22.1553 18.9691 22.6977 19.4733 23.3334 19.8333H4.66675C5.30251 19.4733 5.84486 18.9691 6.25013 18.3611C6.65541 17.7532 6.91228 17.0587 7.00008 16.3333V12.8333C7.06957 11.3529 7.5406 9.91932 8.36269 8.68618C9.18478 7.45305 10.3269 6.46687 11.6667 5.83333" stroke="#1A202C" stroke-width="1.5" stroke-linecap="round" stroke-linejoin="round"/>
<path d="M10.5 19.8333V21C10.5 21.9282 10.8687 22.8185 11.5251 23.4749C12.1815 24.1312 13.0717 24.5 14 24.5C14.9283 24.5 15.8185 24.1312 16.4749 23.4749C17.1313 22.8185 17.5 21.9282 17.5 21V19.8333" stroke="#1A202C" stroke-width="1.5" stroke-linecap="round" stroke-linejoin="round"/>
</svg>
