<svg width="48" height="48" viewBox="0 0 48 48" fill="none" xmlns="http://www.w3.org/2000/svg">
<rect y="0.000854492" width="48" height="48" rx="24" fill="#FFF0F0"/>
<path d="M23.8505 33.3565C28.2376 29.5961 34.4005 25.9402 37.7848 24.6241C37.2625 24.2898 36.4478 23.8094 35.5286 23.2871C31.1624 24.7286 26.065 27.9249 21.5107 31.539C22.2837 32.1239 23.0985 32.7298 23.8505 33.3565Z" fill="#E31837"/>
<path d="M21.8448 23.1409C21.1972 22.8275 20.4869 22.535 19.9437 22.2843C18.2934 23.0991 16.1416 24.3317 13.4258 26.2745C14.0107 26.5879 14.6375 26.9639 15.306 27.34C17.3951 25.794 19.505 24.3317 21.8448 23.1409Z" fill="#012169"/>
<path d="M25.7515 21.3442C24.9577 20.9055 22.2001 19.8819 20.299 19.4431C19.735 19.6521 18.9411 19.9654 18.3979 20.1952C19.0873 20.3832 21.6569 21.0726 23.8505 22.1799C24.4145 21.9083 25.2084 21.574 25.7515 21.3442Z" fill="#E31837"/>
<path d="M16.4135 21.0727C13.9693 22.2008 11.3997 23.7467 10 24.6451C10.5014 24.8749 11.0028 25.0629 11.6922 25.3971C14.784 23.308 17.2074 22.0337 18.1683 21.6159C17.4789 21.3652 16.8313 21.1981 16.4135 21.0727Z" fill="#012169"/>
<path d="M27.5903 20.6966C28.1543 20.5086 28.8019 20.3415 29.366 20.1744C27.7365 19.485 25.6892 18.7538 23.8508 18.2942C23.5583 18.3777 22.6809 18.6075 22.075 18.7956C22.7018 18.9836 24.77 19.4641 27.5903 20.6966ZM17.291 28.5516C17.9595 28.9486 18.6698 29.4917 19.3592 29.9513C23.9343 26.3999 28.4468 23.6631 33.3979 22.1172C32.7085 21.7621 32.1027 21.4487 31.3297 21.0727C28.3632 21.8247 23.2867 23.8512 17.291 28.5516Z" fill="#E31837"/>
</svg>
