<svg width="20" height="20" viewBox="0 0 20 20" fill="none" xmlns="http://www.w3.org/2000/svg">
<path d="M15.0001 6.6665H8.33341C7.41294 6.6665 6.66675 7.4127 6.66675 8.33317V14.9998C6.66675 15.9203 7.41294 16.6665 8.33341 16.6665H15.0001C15.9206 16.6665 16.6667 15.9203 16.6667 14.9998V8.33317C16.6667 7.4127 15.9206 6.6665 15.0001 6.6665Z" stroke="#718096" stroke-width="1.5" stroke-linecap="round" stroke-linejoin="round"/>
<path d="M13.3334 6.66659V4.99992C13.3334 4.55789 13.1578 4.13397 12.8452 3.82141C12.5327 3.50885 12.1087 3.33325 11.6667 3.33325H5.00004C4.55801 3.33325 4.13409 3.50885 3.82153 3.82141C3.50897 4.13397 3.33337 4.55789 3.33337 4.99992V11.6666C3.33337 12.1086 3.50897 12.5325 3.82153 12.8451C4.13409 13.1577 4.55801 13.3333 5.00004 13.3333H6.66671" stroke="#718096" stroke-width="1.5" stroke-linecap="round" stroke-linejoin="round"/>
</svg>
