<svg width="28" height="28" viewBox="0 0 28 28" fill="none" xmlns="http://www.w3.org/2000/svg">
<path d="M14 21.875C13.5217 21.875 13.125 21.4783 13.125 21V19.8333C13.125 19.355 13.5217 18.9583 14 18.9583C14.4783 18.9583 14.875 19.355 14.875 19.8333V21C14.875 21.4783 14.4783 21.875 14 21.875Z" fill="#FF784B"/>
<path d="M14 26.5417C13.5217 26.5417 13.125 26.145 13.125 25.6667V24.5C13.125 24.0217 13.5217 23.625 14 23.625C14.4783 23.625 14.875 24.0217 14.875 24.5V25.6667C14.875 26.145 14.4783 26.5417 14 26.5417Z" fill="#FF784B"/>
<path d="M2.33332 26.5417C2.26332 26.5417 2.19332 26.53 2.12332 26.5183C1.65666 26.4017 1.36499 25.9233 1.48166 25.4567L2.64832 20.79C2.76499 20.3233 3.23166 20.0317 3.70999 20.1483C4.17666 20.265 4.46832 20.7433 4.35166 21.21L3.18499 25.8767C3.07999 26.2733 2.72999 26.5417 2.33332 26.5417Z" fill="#FF784B"/>
<path d="M25.3781 26.2531C24.9814 26.2531 24.6314 25.9847 24.5264 25.5881L23.3598 20.9214C23.2431 20.4547 23.5231 19.9764 24.0014 19.8597C24.4681 19.7431 24.9464 20.0231 25.0631 20.5014L26.2298 25.1681C26.3464 25.6347 26.0664 26.1131 25.5881 26.2297C25.5181 26.2414 25.4481 26.2531 25.3781 26.2531Z" fill="#FF784B"/>
<path d="M22.33 6.18334C22.33 6.53334 22.0383 6.81334 21.7 6.81334H6.45166C6.10166 6.81334 5.82166 6.52167 5.82166 6.18334C5.82166 5.83334 6.11332 5.55334 6.45166 5.55334H7.31499L7.64166 4.02501C7.94499 2.53167 8.57499 1.16667 11.095 1.16667H17.0333C19.5533 1.16667 20.195 2.53167 20.4983 4.01334L20.825 5.54167H21.6883C22.0383 5.54167 22.33 5.83334 22.33 6.18334Z" fill="#FF784B"/>
<path d="M22.6917 10.9667C22.5633 9.56667 22.19 8.08501 19.4717 8.08501H8.66834C5.95001 8.08501 5.58834 9.57834 5.44834 10.9667L4.97001 16.1233C4.91167 16.765 5.12167 17.4067 5.56501 17.8967C6.02001 18.3867 6.65001 18.6667 7.32667 18.6667H8.91334C10.29 18.6667 10.5467 17.885 10.7217 17.36L10.8967 16.8467C11.095 16.2633 11.1417 16.1233 11.9 16.1233H16.24C16.9983 16.1233 17.0217 16.205 17.2433 16.8467L17.4183 17.36C17.5817 17.885 17.85 18.6667 19.215 18.6667H20.8017C21.4667 18.6667 22.1083 18.3867 22.5633 17.8967C23.0067 17.4183 23.2167 16.765 23.1583 16.1233L22.6917 10.9667ZM11.5267 12.74H8.99501C8.64501 12.74 8.36501 12.4483 8.36501 12.11C8.36501 11.7717 8.65667 11.48 8.99501 11.48H11.5383C11.8883 11.48 12.1683 11.7717 12.1683 12.11C12.1683 12.4483 11.8767 12.74 11.5267 12.74ZM19.145 12.74H16.6017C16.2517 12.74 15.9717 12.4483 15.9717 12.11C15.9717 11.7717 16.2633 11.48 16.6017 11.48H19.145C19.495 11.48 19.775 11.7717 19.775 12.11C19.775 12.4483 19.495 12.74 19.145 12.74Z" fill="#FF784B"/>
</svg>
