<svg width="28" height="28" viewBox="0 0 28 28" fill="none" xmlns="http://www.w3.org/2000/svg">
<path d="M5.83329 17.5C4.64329 17.5 3.54663 17.955 2.71829 18.7017C2.53163 18.865 2.35663 19.04 2.20496 19.2383C1.55163 20.0433 1.16663 21.0583 1.16663 22.1667C1.16663 24.745 3.26663 26.8333 5.83329 26.8333C6.95329 26.8333 7.96829 26.4367 8.77329 25.795C9.42663 25.2467 9.93996 24.535 10.22 23.7183C10.4066 23.24 10.5 22.715 10.5 22.1667C10.5 19.6 8.41163 17.5 5.83329 17.5ZM8.63329 21.2683C8.63329 21.595 8.37663 21.84 8.06163 21.84C7.74663 21.84 7.48996 21.595 7.48996 21.2683V21.1517C7.48996 21.0233 7.39663 20.9183 7.26829 20.9183H4.93496C5.05163 21.14 5.02829 21.4083 4.84163 21.595C4.73663 21.7 4.59663 21.7583 4.43329 21.7583C4.29329 21.7583 4.14163 21.7 4.03663 21.595L3.19663 20.755C3.14996 20.7083 3.10329 20.6383 3.06829 20.5683C3.02163 20.4283 3.02163 20.2767 3.06829 20.1367C3.10329 20.0783 3.13829 19.9967 3.19663 19.95L4.03663 19.1217C4.25829 18.8883 4.61996 18.8883 4.82996 19.1217C5.01663 19.2967 5.03996 19.5767 4.92329 19.7867H7.26829C8.01496 19.7867 8.62163 20.3933 8.62163 21.1517V21.2683H8.63329ZM7.23329 25.3867C7.08163 25.3867 6.92996 25.34 6.82496 25.2233C6.63829 25.0483 6.61496 24.7683 6.73163 24.5583H4.38663C3.63996 24.5583 3.03329 23.9517 3.03329 23.1933V23.0767C3.03329 22.75 3.28996 22.505 3.60496 22.505C3.91996 22.505 4.17663 22.75 4.17663 23.0767V23.1933C4.17663 23.3217 4.26996 23.4267 4.39829 23.4267H6.74329C6.62663 23.205 6.64996 22.9367 6.83663 22.75C7.05829 22.5283 7.41996 22.5283 7.62996 22.75L8.46996 23.59C8.51663 23.6367 8.56329 23.7067 8.59829 23.7767C8.64496 23.9167 8.64496 24.0683 8.59829 24.2083C8.56329 24.2667 8.51663 24.3367 8.46996 24.3833L7.62996 25.2117C7.52496 25.3283 7.37329 25.3867 7.23329 25.3867Z" fill="#936DFF"/>
<path d="M17.325 4.60833V9.04166H15.575V4.60833C15.575 4.29333 15.295 4.14166 15.1083 4.14166C15.05 4.14166 14.9916 4.15333 14.9333 4.17666L5.68163 7.665C5.06329 7.89833 4.66663 8.48166 4.66663 9.14666V9.92833C3.60496 10.7217 2.91663 11.9933 2.91663 13.4283V9.14666C2.91663 7.75833 3.76829 6.52166 5.06329 6.03166L14.3266 2.53166C14.5833 2.43833 14.8516 2.39166 15.1083 2.39166C16.275 2.39166 17.325 3.33666 17.325 4.60833Z" fill="#936DFF"/>
<path d="M25.0833 16.9167V18.0833C25.0833 18.3983 24.8383 18.655 24.5117 18.6667H22.8083C22.19 18.6667 21.63 18.2117 21.5833 17.605C21.5483 17.2433 21.6883 16.905 21.9217 16.6717C22.1317 16.45 22.4233 16.3333 22.7383 16.3333H24.5C24.8383 16.345 25.0833 16.6017 25.0833 16.9167Z" fill="#936DFF"/>
<path d="M22.7266 15.1083H23.9166C24.5583 15.1083 25.0833 14.5833 25.0833 13.9417V13.4283C25.0833 11.0133 23.1116 9.04167 20.6966 9.04167H7.30329C6.31163 9.04167 5.40163 9.36834 4.66663 9.92834C3.60496 10.7217 2.91663 11.9933 2.91663 13.4283V15.505C2.91663 15.9483 3.38329 16.2283 3.80329 16.0883C4.45663 15.8667 5.14496 15.75 5.83329 15.75C9.36829 15.75 12.25 18.6317 12.25 22.1667C12.25 23.0067 12.0283 23.9283 11.6783 24.745C11.4916 25.165 11.7833 25.6667 12.2383 25.6667H20.6966C23.1116 25.6667 25.0833 23.695 25.0833 21.28V21.0583C25.0833 20.4167 24.5583 19.8917 23.9166 19.8917H22.9016C21.7816 19.8917 20.7083 19.2033 20.4166 18.1183C20.1833 17.2317 20.4633 16.3683 21.0466 15.8083C21.4783 15.365 22.0733 15.1083 22.7266 15.1083ZM16.3333 14.875H10.5C10.0216 14.875 9.62496 14.4783 9.62496 14C9.62496 13.5217 10.0216 13.125 10.5 13.125H16.3333C16.8116 13.125 17.2083 13.5217 17.2083 14C17.2083 14.4783 16.8116 14.875 16.3333 14.875Z" fill="#936DFF"/>
</svg>
