<svg width="48" height="48" viewBox="0 0 48 48" fill="none" xmlns="http://www.w3.org/2000/svg">
<rect y="0.000396729" width="48" height="48" rx="24" fill="#F0F3FF"/>
<path d="M29.4167 14.7917C29.4167 14.648 29.3596 14.5102 29.258 14.4086C29.1564 14.3071 29.0187 14.25 28.875 14.25H26.1667C24.8029 14.1821 23.4676 14.6567 22.4527 15.5701C21.4377 16.4836 20.8256 17.7616 20.75 19.125V22.05H18.0417C17.898 22.05 17.7602 22.1071 17.6587 22.2086C17.5571 22.3102 17.5 22.448 17.5 22.5917V25.4083C17.5 25.552 17.5571 25.6898 17.6587 25.7913C17.7602 25.8929 17.898 25.95 18.0417 25.95H20.75V33.2083C20.75 33.352 20.8071 33.4898 20.9086 33.5913C21.0102 33.6929 21.148 33.75 21.2917 33.75H24.5417C24.6853 33.75 24.8231 33.6929 24.9247 33.5913C25.0263 33.4898 25.0833 33.352 25.0833 33.2083V25.95H27.9217C28.0421 25.9517 28.1597 25.9133 28.2559 25.8407C28.352 25.7681 28.4212 25.6655 28.4525 25.5492L29.2325 22.7325C29.2541 22.6525 29.2569 22.5685 29.241 22.4872C29.225 22.4059 29.1906 22.3293 29.1403 22.2634C29.0901 22.1975 29.0254 22.1439 28.9512 22.1069C28.8771 22.0699 28.7954 22.0505 28.7125 22.05H25.0833V19.125C25.1103 18.8568 25.2362 18.6084 25.4365 18.4281C25.6368 18.2478 25.8972 18.1486 26.1667 18.15H28.875C29.0187 18.15 29.1564 18.0929 29.258 17.9913C29.3596 17.8898 29.4167 17.752 29.4167 17.6083V14.7917Z" fill="#194BFB"/>
</svg>
