<svg width="20" height="20" viewBox="0 0 20 20" fill="none" xmlns="http://www.w3.org/2000/svg">
<path d="M8.60851 13.8274H3.35791" stroke="#1A202C" stroke-width="1.5" stroke-linecap="round" stroke-linejoin="round"/>
<path d="M10.9507 5.75029H16.2013" stroke="#1A202C" stroke-width="1.5" stroke-linecap="round" stroke-linejoin="round"/>
<path fill-rule="evenodd" clip-rule="evenodd" d="M7.27207 5.70521C7.27207 4.6255 6.39027 3.75 5.30278 3.75C4.2153 3.75 3.3335 4.6255 3.3335 5.70521C3.3335 6.78492 4.2153 7.66042 5.30278 7.66042C6.39027 7.66042 7.27207 6.78492 7.27207 5.70521Z" stroke="#1A202C" stroke-width="1.5" stroke-linecap="round" stroke-linejoin="round"/>
<path fill-rule="evenodd" clip-rule="evenodd" d="M16.6666 13.7948C16.6666 12.7151 15.7855 11.8396 14.698 11.8396C13.6098 11.8396 12.728 12.7151 12.728 13.7948C12.728 14.8745 13.6098 15.75 14.698 15.75C15.7855 15.75 16.6666 14.8745 16.6666 13.7948Z" stroke="#1A202C" stroke-width="1.5" stroke-linecap="round" stroke-linejoin="round"/>
</svg>
