<svg width="23" height="22" viewBox="0 0 23 22" fill="none" xmlns="http://www.w3.org/2000/svg">
<path d="M21.3761 11.2137C21.3761 10.4224 21.3105 9.84485 21.1687 9.24597H11.9475V12.8179H17.3602C17.2511 13.7055 16.6618 15.0424 15.3522 15.9406L15.3339 16.0602L18.2495 18.2737L18.4515 18.2935C20.3066 16.6144 21.3761 14.144 21.3761 11.2137Z" fill="#4285F4"/>
<path d="M11.9469 20.625C14.5986 20.625 16.8248 19.7694 18.4508 18.2936L15.3516 15.9408C14.5223 16.5076 13.4092 16.9033 11.9469 16.9033C9.3497 16.9033 7.14536 15.2243 6.35957 12.9036L6.2444 12.9131L3.21274 15.2125L3.1731 15.3205C4.78815 18.4647 8.10561 20.625 11.9469 20.625Z" fill="#34A853"/>
<path d="M6.36006 12.9036C6.15272 12.3047 6.03273 11.663 6.03273 11C6.03273 10.3369 6.15272 9.69524 6.34915 9.09636L6.34366 8.96881L3.274 6.63257L3.17357 6.67938C2.50792 7.98412 2.12598 9.44929 2.12598 11C2.12598 12.5507 2.50792 14.0158 3.17357 15.3205L6.36006 12.9036Z" fill="#FBBC05"/>
<path d="M11.9469 5.09664C13.7912 5.09664 15.0352 5.87733 15.7445 6.52974L18.5164 3.8775C16.814 2.32681 14.5987 1.375 11.9469 1.375C8.10563 1.375 4.78816 3.53526 3.1731 6.6794L6.34868 9.09638C7.14538 6.77569 9.34973 5.09664 11.9469 5.09664Z" fill="#EB4335"/>
</svg>
