<svg width="48" height="48" viewBox="0 0 48 48" fill="none" xmlns="http://www.w3.org/2000/svg">
<rect y="0.000244141" width="48" height="48" rx="24" fill="#E8EDFF"/>
<path d="M18.73 31.7002C19.55 30.8202 20.8 30.8902 21.52 31.8502L22.53 33.2002C23.34 34.2702 24.65 34.2702 25.46 33.2002L26.47 31.8502C27.19 30.8902 28.44 30.8202 29.26 31.7002C31.04 33.6002 32.49 32.9702 32.49 30.3102V19.0402C32.5 15.0102 31.56 14.0002 27.78 14.0002H20.22C16.44 14.0002 15.5 15.0102 15.5 19.0402V30.3002C15.5 32.9702 16.96 33.5902 18.73 31.7002Z" stroke="#194BFB" stroke-width="1.5" stroke-linecap="round" stroke-linejoin="round"/>
<path d="M20 19.0002H28" stroke="#194BFB" stroke-width="1.5" stroke-linecap="round" stroke-linejoin="round"/>
<path d="M21 23.0002H27" stroke="#194BFB" stroke-width="1.5" stroke-linecap="round" stroke-linejoin="round"/>
</svg>
