<svg width="20" height="20" viewBox="0 0 20 20" fill="none" xmlns="http://www.w3.org/2000/svg">
<path d="M8.33333 6.66658V4.99992C8.33333 4.55789 8.50893 4.13397 8.82149 3.82141C9.13405 3.50885 9.55797 3.33325 10 3.33325H15.8333C16.2754 3.33325 16.6993 3.50885 17.0118 3.82141C17.3244 4.13397 17.5 4.55789 17.5 4.99992V14.9999C17.5 15.4419 17.3244 15.8659 17.0118 16.1784C16.6993 16.491 16.2754 16.6666 15.8333 16.6666H10C9.55797 16.6666 9.13405 16.491 8.82149 16.1784C8.50893 15.8659 8.33333 15.4419 8.33333 14.9999V13.3333" stroke="#A0AEC0" stroke-width="1.5" stroke-linecap="round" stroke-linejoin="round"/>
<path d="M14.1665 10H2.49984M2.49984 10L4.99984 7.5M2.49984 10L4.99984 12.5" stroke="#A0AEC0" stroke-width="1.5" stroke-linecap="round" stroke-linejoin="round"/>
</svg>
