<svg width="40" height="40" viewBox="0 0 40 40" fill="none" xmlns="http://www.w3.org/2000/svg">
<rect y="0.00012207" width="40" height="40" rx="20" fill="#E8EDFF"/>
<path d="M27 15C27 15.18 26.99 15.35 26.97 15.52C26.85 16.97 26.21 18.28 25.24 19.24C24.16 20.33 22.66 21 21 21H17.87C17.37 21 16.95 21.37 16.88 21.86L16.12 27.14C16.06 27.53 15.78 27.85 15.41 27.95C15.32 27.99 15.23 28 15.13 28H13.18C12.56 28 12.09 27.45 12.19 26.84L14.58 12.51C14.82 11.06 16.07 10 17.54 10H22C24.76 10 27 12.24 27 15Z" fill="#194BFB"/>
<path d="M29 19C29 20.38 28.44 21.63 27.54 22.54C26.63 23.44 25.38 24 24 24H21.85C21.36 24 20.94 24.35 20.86 24.84L20.14 29.16C20.06 29.65 19.64 30 19.15 30H16.22C16.04 30 15.88 29.96 15.74 29.88C15.52 29.76 15.66 29.47 15.9 29.37C16.8 29.08 17.46 28.31 17.6 27.35L18.24 22.93C18.28 22.68 18.49 22.5 18.73 22.5H21C23.01 22.5 24.9 21.72 26.3 20.31C27.13 19.49 27.75 18.48 28.11 17.39C28.19 17.14 28.52 17.09 28.63 17.32C28.87 17.84 29 18.4 29 19Z" fill="#194BFB"/>
</svg>
