<svg width="22" height="23" viewBox="0 0 22 23" fill="none" xmlns="http://www.w3.org/2000/svg">
<path d="M8.25016 13.3333L13.7502 7.83333L8.25016 13.3333ZM8.7085 8.29167H8.71766H8.7085ZM13.2918 12.875H13.301H13.2918ZM17.4168 19.75V5.08333C17.4168 4.5971 17.2237 4.13079 16.8799 3.78697C16.536 3.44315 16.0697 3.25 15.5835 3.25H6.41683C5.9306 3.25 5.46428 3.44315 5.12047 3.78697C4.77665 4.13079 4.5835 4.5971 4.5835 5.08333V19.75L7.79183 17.9167L11.0002 19.75L14.2085 17.9167L17.4168 19.75ZM9.16683 8.29167C9.16683 8.41322 9.11854 8.5298 9.03259 8.61576C8.94663 8.70171 8.83005 8.75 8.7085 8.75C8.58694 8.75 8.47036 8.70171 8.38441 8.61576C8.29845 8.5298 8.25016 8.41322 8.25016 8.29167C8.25016 8.17011 8.29845 8.05353 8.38441 7.96758C8.47036 7.88162 8.58694 7.83333 8.7085 7.83333C8.83005 7.83333 8.94663 7.88162 9.03259 7.96758C9.11854 8.05353 9.16683 8.17011 9.16683 8.29167ZM13.7502 12.875C13.7502 12.9966 13.7019 13.1131 13.6159 13.1991C13.53 13.285 13.4134 13.3333 13.2918 13.3333C13.1703 13.3333 13.0537 13.285 12.9677 13.1991C12.8818 13.1131 12.8335 12.9966 12.8335 12.875C12.8335 12.7534 12.8818 12.6369 12.9677 12.5509C13.0537 12.465 13.1703 12.4167 13.2918 12.4167C13.4134 12.4167 13.53 12.465 13.6159 12.5509C13.7019 12.6369 13.7502 12.7534 13.7502 12.875Z" stroke="#718096" stroke-width="1.5" stroke-linecap="round" stroke-linejoin="round"/>
</svg>
