<svg width="28" height="28" viewBox="0 0 28 28" fill="none" xmlns="http://www.w3.org/2000/svg">
<path d="M18.8883 2.33333H9.11159C4.86492 2.33333 2.33325 4.86499 2.33325 9.11166V18.8767C2.33325 23.135 4.86492 25.6667 9.11159 25.6667H18.8766C23.1233 25.6667 25.6549 23.135 25.6549 18.8883V9.11166C25.6666 4.86499 23.1349 2.33333 18.8883 2.33333ZM8.90159 21.175C8.90159 21.6533 8.50492 22.05 8.02659 22.05C7.54825 22.05 7.15159 21.6533 7.15159 21.175V18.76C7.15159 18.2817 7.54825 17.885 8.02659 17.885C8.50492 17.885 8.90159 18.2817 8.90159 18.76V21.175ZM14.8749 21.175C14.8749 21.6533 14.4783 22.05 13.9999 22.05C13.5216 22.05 13.1249 21.6533 13.1249 21.175V16.3333C13.1249 15.855 13.5216 15.4583 13.9999 15.4583C14.4783 15.4583 14.8749 15.855 14.8749 16.3333V21.175ZM20.8483 21.175C20.8483 21.6533 20.4516 22.05 19.9733 22.05C19.4949 22.05 19.0983 21.6533 19.0983 21.175V13.9183C19.0983 13.44 19.4949 13.0433 19.9733 13.0433C20.4516 13.0433 20.8483 13.44 20.8483 13.9183V21.175ZM20.8483 10.2317C20.8483 10.71 20.4516 11.1067 19.9733 11.1067C19.4949 11.1067 19.0983 10.71 19.0983 10.2317V9.1C16.1233 12.1567 12.4016 14.315 8.23659 15.3533C8.16658 15.3767 8.09659 15.3767 8.02659 15.3767C7.62992 15.3767 7.27992 15.1083 7.17492 14.7117C7.05825 14.245 7.33825 13.7667 7.81659 13.65C11.7483 12.67 15.2483 10.605 18.0249 7.68833H16.5666C16.0883 7.68833 15.6916 7.29166 15.6916 6.81333C15.6916 6.33499 16.0883 5.93833 16.5666 5.93833H19.9849C20.0316 5.93833 20.0666 5.96166 20.1133 5.96166C20.1716 5.97333 20.2299 5.97333 20.2882 5.99666C20.3466 6.01999 20.3933 6.05499 20.4516 6.08999C20.4866 6.11333 20.5216 6.12499 20.5566 6.14833C20.5683 6.15999 20.5683 6.17166 20.5799 6.17166C20.6266 6.21833 20.6616 6.26499 20.6966 6.31166C20.7316 6.35833 20.7666 6.39333 20.7783 6.43999C20.8016 6.48666 20.8016 6.53333 20.8133 6.59166C20.8249 6.64999 20.8483 6.70833 20.8483 6.77833C20.8483 6.78999 20.8599 6.80166 20.8599 6.81333V10.2317H20.8483Z" fill="#22C55E"/>
</svg>
