<svg width="48" height="48" viewBox="0 0 48 48" fill="none" xmlns="http://www.w3.org/2000/svg">
<rect y="0.000732422" width="48" height="48" rx="24" fill="#F7FAFC"/>
<path d="M31.4999 17.8683C31.3483 17.8683 30.8716 17.9008 30.8716 18.3558C30.8716 18.67 31.1099 18.8542 31.4999 18.8542C31.8899 18.8542 32.1283 18.67 32.1283 18.3558C32.1283 17.9983 31.8033 17.8683 31.4999 17.8683Z" fill="#1A202C"/>
<path d="M31.5001 16.9692C31.7926 16.9692 31.9768 16.8067 31.9768 16.5575C31.9768 16.2542 31.7276 16.1567 31.5001 16.1567C31.2726 16.1567 31.0234 16.265 31.0234 16.5575C31.0234 16.8067 31.2076 16.9692 31.5001 16.9692Z" fill="#1A202C"/>
<path d="M31.4998 13.1667C29.2248 13.1667 27.3723 14.9108 27.1882 17.1317C27.1665 17.2508 27.1665 17.3808 27.1665 17.5C27.1665 19.8942 29.1057 21.8333 31.4998 21.8333C31.879 21.8333 32.2365 21.79 32.5832 21.6925C34.4573 21.2158 35.8332 19.515 35.8332 17.5C35.8332 15.1058 33.894 13.1667 31.4998 13.1667ZM31.4998 19.8833C30.4273 19.8833 29.7665 19.3417 29.7665 18.4642C29.7665 18.0417 29.9615 17.6625 30.3082 17.4025C30.0482 17.175 29.9073 16.8608 29.9073 16.5033C29.9073 15.6692 30.5465 15.1167 31.489 15.1167C32.4315 15.1167 33.0707 15.68 33.0707 16.5033C33.0707 16.8608 32.9407 17.175 32.6698 17.4025C33.0273 17.6517 33.2223 18.0308 33.2223 18.4642C33.2332 19.3417 32.5723 19.8833 31.4998 19.8833Z" fill="#1A202C"/>
<path d="M31.4998 23.4583C30.254 23.4583 29.0948 23.0792 28.1415 22.4183C28.0657 22.3642 27.9682 22.4183 27.9682 22.505L27.979 27.7267C27.979 28.1817 27.6107 28.5392 27.1665 28.5392C26.7223 28.5392 26.354 28.1817 26.354 27.7267V22.375C26.354 22.0175 26.5923 21.7142 26.9173 21.6058C27.004 21.5733 27.0582 21.4542 26.9932 21.3892C26.094 20.3492 25.5415 18.995 25.5415 17.5108C25.5415 17.3267 25.5523 17.1317 25.574 16.9475C25.574 16.9042 25.5848 16.8717 25.5848 16.8283C25.6173 16.5792 25.4873 16.3408 25.2707 16.2325L24.2957 15.7667C23.7107 15.4958 23.039 15.4958 22.454 15.7667L15.4123 19.0817C14.654 19.4392 14.1665 20.1975 14.1665 21.0425V29.1242C14.1665 29.9692 14.654 30.7275 15.4123 31.085L22.454 34.4C23.039 34.6708 23.7107 34.6708 24.2957 34.4L31.3373 31.085C32.0957 30.7275 32.5832 29.9692 32.5832 29.1242V24.0217C32.5832 23.6858 32.269 23.4258 31.9332 23.4475C31.7923 23.4583 31.6515 23.4583 31.4998 23.4583ZM24.729 25.625C24.729 27.2717 23.3965 28.6042 21.7498 28.6042C20.1032 28.6042 18.7707 27.2717 18.7707 25.625V22.375C18.7707 21.9308 19.139 21.5625 19.5832 21.5625C20.0273 21.5625 20.3957 21.9308 20.3957 22.375V25.625C20.3957 26.3725 21.0023 26.9792 21.7498 26.9792C22.4973 26.9792 23.104 26.3725 23.104 25.625V22.375C23.104 21.9308 23.4723 21.5625 23.9165 21.5625C24.3607 21.5625 24.729 21.9308 24.729 22.375V25.625Z" fill="#1A202C"/>
</svg>
