<svg width="48" height="48" viewBox="0 0 48 48" fill="none" xmlns="http://www.w3.org/2000/svg">
<rect y="0.000488281" width="48" height="48" rx="24" fill="#F2FDF6"/>
<path d="M29.9257 18.5758C28.7959 18.5957 27.7075 19.004 26.8433 19.732C25.9792 20.46 25.392 21.4633 25.1807 22.5733C24.1198 20.9244 23.2888 19.1385 22.7107 17.265H20.2623V23.765C20.2623 24.3799 20.0181 24.9695 19.5833 25.4043C19.1485 25.8391 18.5589 26.0833 17.944 26.0833C17.3291 26.0833 16.7395 25.8391 16.3047 25.4043C15.8699 24.9695 15.6257 24.3799 15.6257 23.765V17.265L13.1665 17.3192V23.8192C13.1737 25.0834 13.6828 26.2929 14.5818 27.1818C15.4808 28.0706 16.6961 28.5659 17.9603 28.5587C19.2245 28.5516 20.434 28.0425 21.3229 27.1435C22.2117 26.2445 22.707 25.0292 22.6998 23.765V22.6817C23.2196 23.7012 23.8172 24.6791 24.4873 25.6067L22.9923 32.7675H25.5057L26.589 27.5567C27.593 28.2019 28.7648 28.5372 29.9582 28.5208C31.2712 28.5208 32.5305 27.9992 33.4589 27.0708C34.3874 26.1423 34.909 24.883 34.909 23.57C34.909 22.257 34.3874 20.9977 33.4589 20.0692C32.5305 19.1408 31.2712 18.6192 29.9582 18.6192L29.9257 18.5758ZM29.9257 25.975C28.9077 25.9421 27.9321 25.5595 27.1632 24.8917L27.4123 23.9058V23.8517C27.5857 22.7683 28.1273 21.035 29.9582 21.035C30.2792 21.0321 30.5976 21.0927 30.8951 21.2133C31.1926 21.3338 31.4634 21.5119 31.6919 21.7374C31.9204 21.9629 32.1021 22.2313 32.2266 22.5272C32.3511 22.8231 32.4159 23.1407 32.4173 23.4617C32.3941 24.1116 32.1292 24.7295 31.6743 25.1944C31.2195 25.6593 30.6075 25.9376 29.9582 25.975H29.9257Z" fill="#22C55E"/>
</svg>
